<svg version="1.1" xmlns="http://www.w3.org/2000/svg" xmlns:xlink="http://www.w3.org/1999/xlink" x="0px"
	 y="0px" width="512px" height="118.3px" viewBox="0 40 259.68 60" xml:space="preserve">
<defs>
    <linearGradient id="SVGID_1_W512" gradientUnits="userSpaceOnUse" x1="193.3115" y1="44.2549" x2="202.3872" y2="65.7874">
        <stop offset="0" style="stop-color:#C737FC"/><stop offset="0.9961" style="stop-color:#20FFFC"/>
    </linearGradient>
    <linearGradient id="SVGID_2_W512" gradientUnits="userSpaceOnUse" x1="61.6523" y1="49.5117" x2="82.7134" y2="60.8809">
        <stop offset="0" style="stop-color:#C737FC"/><stop offset="0.9961" style="stop-color:#20FFFC"/>
    </linearGradient>
    <linearGradient id="SVGID_3_W512" gradientUnits="userSpaceOnUse" x1="96.7539" y1="84.8652" x2="74.9209" y2="63.6987">
        <stop offset="0" style="stop-color:#C737FC"/><stop offset="0.9961" style="stop-color:#20FFFC"/>
    </linearGradient>
    <linearGradient id="SVGID_4_W512" gradientUnits="userSpaceOnUse" x1="57.8774" y1="85.4561" x2="78.2475" y2="64.7463">
        <stop offset="0" style="stop-color:#C737FC"/><stop offset="0.9961" style="stop-color:#20FFFC"/>
    </linearGradient>
</defs>
<g id="Skill_copy_4_w512">
	<g>
		<path fill-rule="evenodd" clip-rule="evenodd" fill="#0E1E59" d="M113.58,61.884c0-2.542,1.829-3.748,4.282-3.658
			c2.677,0.044,4.327,1.65,4.461,3.702h6.87c-0.402-5.621-4.773-8.877-11.152-8.877c-6.424,0-10.974,3.39-10.974,9.011
			c-0.045,11.286,16.014,7.227,16.014,13.963c0,2.23-1.74,3.792-4.684,3.792c-2.9,0-4.55-1.65-4.729-4.148h-6.691
			c0.089,5.888,5.085,9.278,11.554,9.278c7.093,0,11.018-4.417,11.018-9.323C129.549,64.65,113.58,68.13,113.58,61.884z
			 M156.715,59.921h-8.119l-8.297,10.483v-18.78h-6.245v33.011h6.245V74.107l8.387,10.527h8.119L145.83,72.323L156.715,59.921z
			 M170.721,84.635h6.246V51.624h-6.246V84.635z M182.229,51.624v33.011h6.245V51.624H182.229z M162.361,49.398
			c-2.16,0-3.91,1.75-3.91,3.911c0,2.159,1.75,3.91,3.91,3.91c2.159,0,3.91-1.751,3.91-3.91
			C166.271,51.148,164.521,49.398,162.361,49.398z M159.213,84.635h6.244V59.921h-6.244V84.635z"/>
	</g>
</g>
<g id="_x33__copy_4_w512">
	<g>
		<path fill-rule="evenodd" clip-rule="evenodd" fill="url(#SVGID_1_W512)" d="M201.186,56.004v-0.085
			c1.072-0.364,2.357-1.457,2.357-3.515c0-2.357-1.778-4.243-5.078-4.243c-3.193,0-5.208,1.693-5.336,4.779h3.578
			c0.064-0.857,0.493-1.714,1.672-1.714c0.985,0,1.607,0.579,1.607,1.629c0,1.414-1.201,1.714-2.443,1.714h-0.686v2.979h0.686
			c1.907,0,2.742,0.557,2.742,1.95c0,1.029-0.621,1.757-1.756,1.757c-1.351,0-2.016-0.814-2.037-2.036h-3.557
			c0.107,3.536,2.465,5.079,5.722,5.079c3.278,0,5.165-1.886,5.165-4.521C203.822,57.719,202.75,56.519,201.186,56.004z"/>
	</g>
</g>
<g id="Shape_7_copy_4_w512">
	<g>
		<polygon fill-rule="evenodd" clip-rule="evenodd" fill="url(#SVGID_2_W512)" points="77.428,46.452 57.251,58.102 77.374,69.574 
			97.55,57.925 		"/>
	</g>
</g>
<g id="Shape_7_copy_5_w512">
	<g>
		<polygon fill-rule="evenodd" clip-rule="evenodd" fill="url(#SVGID_3_W512)" points="77.889,70.465 77.889,93.763 97.885,82.073 
			97.885,58.775 		"/>
	</g>
</g>
<g id="Shape_7_copy_6_w512">
	<g>
		<polygon fill-rule="evenodd" clip-rule="evenodd" fill="url(#SVGID_4_W512)" points="76.941,70.511 56.764,58.862 56.89,82.024 
			77.066,93.674 		"/>
	</g>
</g>
</svg>